<?xml version="1.0" encoding="utf-8"?>
<!DOCTYPE svg PUBLIC "-//W3C//DTD SVG 1.1//EN" "http://www.w3.org/Graphics/SVG/1.1/DTD/svg11.dtd">
<svg version="1.1" xmlns="http://www.w3.org/2000/svg" xmlns:xlink="http://www.w3.org/1999/xlink" x="0px" y="0px" width="30px" height="42px" viewBox="0 0 30 42" enable-background="new 0 0 30 42" xml:space="preserve">
<g>
	<path fill="#E5F5FA" d="M15.865,28.429c1.067,0.84,2.452,2.092,3.381,2.954C23.987,28.201,30,23.271,30,17.943
		c0-3.762-2.602-7.583-6.504-7.583c-4.649,0-8.074,3.574-8.496,4.034c-0.422-0.46-3.847-4.034-8.496-4.034
		C2.602,10.359,0,14.181,0,17.943c0,8.092,14.035,15.048,16.087,16.793c3.888,3.303,0.646,5.557-1.075,5.564
		c-1.699-0.008-4.511-1.75-1.143-5.533c-0.683-0.698-1.982-1.34-2.837-1.847c-1.07,1.262-1.774,2.5-1.774,3.645
		c0,4.363,4.099,5.237,5.767,5.237s5.717-1.277,5.717-5.237c0-3.752-7.553-8.507-10.868-11.803c-2.956-2.94-3.489-4.88-3.489-6.408
		c0-1.646,1.656-3.468,3.666-3.468c2.956,0,4.534,2.042,4.906,2.593h0.089c0.371-0.551,1.949-2.593,4.904-2.593
		c2.01,0,3.666,1.822,3.666,3.468c0,1.528-0.533,3.468-3.489,6.408C19.028,25.854,17.465,27.106,15.865,28.429z"/>
	<g>
		<ellipse fill="#E5F5FA" cx="18.744" cy="4.661" rx="4.62" ry="4.593"/>
		<path fill="#E5F5FA" d="M11.699,0.068c1.048,0,2.011,0.351,2.787,0.936C13.566,1.952,13,3.24,13,4.661s0.566,2.709,1.485,3.657
			c-0.776,0.584-1.739,0.936-2.787,0.936c-2.552,0-4.62-2.057-4.62-4.593C7.08,2.125,9.147,0.068,11.699,0.068z"/>
	</g>
</g>
</svg>
