<?xml version="1.0" encoding="UTF-8"?>
<svg width="308px" height="79px" viewBox="0 0 308 79" version="1.1" xmlns="http://www.w3.org/2000/svg" xmlns:xlink="http://www.w3.org/1999/xlink">
    <path d="M29.8065293,53.7412538 C31.8127458,55.325665 34.4124746,57.6884467 36.1588787,59.3145635 C45.0643755,53.3109645 56.357575,44.0110203 56.357575,33.9587716 C56.357575,26.860401 51.4713377,19.6509492 44.1411786,19.6509492 C35.4079531,19.6509492 28.9748892,26.3936193 28.1822008,27.2614162 C27.389914,26.3936193 20.9572516,19.6509492 12.2228214,19.6509492 C4.89266232,19.6509492 0.00682659713,26.860401 0.00682659713,33.9587716 C0.00682659713,49.2258223 26.3707432,62.3498477 30.2241565,65.6401777 C37.5258044,71.8739594 31.4352751,76.1243198 28.2034837,76.1383553 C25.0118488,76.1243198 19.7312751,72.837198 26.0583259,65.6987259 C24.7749257,64.3821929 22.334618,63.1711269 20.7303677,62.2159086 C18.7185293,64.595934 17.3961773,66.9322487 17.3961773,69.0917157 C17.3961773,77.3233553 25.0949726,78.973132 28.2291838,78.973132 C31.3629935,78.973132 38.9674211,76.5622284 38.9674211,69.0917157 C38.9674211,62.0121929 24.7817523,53.0434873 18.5522816,46.8237411 C13.0002503,41.2777005 11.9995515,37.6184365 11.9995515,34.734335 C11.9995515,31.6292741 15.1100704,28.1913706 18.8851786,28.1913706 C24.4376115,28.1913706 27.3999531,32.0439239 28.0994785,33.0833553 L28.2661278,33.0833553 C28.9636454,32.0439239 31.9263885,28.1913706 37.4784198,28.1913706 C41.2539296,28.1913706 44.3644485,31.6292741 44.3644485,34.734335 C44.3644485,37.6184365 43.3637497,41.2777005 37.8113168,46.8237411 C35.7480782,48.8833553 32.8114368,51.2465381 29.8065293,53.7412538" fill="#E20065"/>
    <path d="M26.5365893,8.90013198 C26.5365893,13.6850457 30.4205215,17.5660711 35.2139974,17.5660711 C40.0066701,17.5660711 43.8902008,13.6850457 43.8902008,8.90013198 C43.8902008,4.11561929 40.0066701,0.235395939 35.2139974,0.235395939 C30.4205215,0.235395939 26.5365893,4.11561929 26.5365893,8.90013198" fill="#E20065"/>
    <path d="M21.9816428,0.235395939 C23.9501121,0.235395939 25.7595619,0.897472081 27.2164381,2.00066497 C25.4897106,3.78959391 24.4255645,6.22054822 24.4255645,8.90013198 C24.4255645,11.5813198 25.4897106,14.0114721 27.2164381,15.799599 C25.7595619,16.9031929 23.9501121,17.5660711 21.9816428,17.5660711 C17.18897,17.5660711 13.3042347,13.6850457 13.3042347,8.90013198 C13.3042347,4.11561929 17.18897,0.235395939 21.9816428,0.235395939" fill="#E20065"/>
    <path d="M68.8578774,28.7491827 C68.8578774,28.4011015 70.03406,27.6612284 71.2977836,27.6612284 C72.7791551,27.6612284 73.5634107,28.7058731 73.5200417,30.2718376 L73.7380913,51.1146041 L82.9752803,33.100599 C83.6286258,31.7948934 84.5437914,31.2727716 86.025163,31.2727716 C87.985601,31.2727716 88.7702581,32.1429746 88.8573977,33.5790102 L90.2949987,51.1146041 L100.621632,27.7482487 C100.621632,27.6612284 104.064245,27.3131472 104.064245,29.9241574 C104.064245,30.5332995 103.889565,31.1857513 103.236219,32.5347665 L92.7786754,54.7694569 C92.2124694,55.8570102 91.3410743,56.3358223 89.6854237,56.3358223 C87.637043,56.3358223 86.9403286,55.5526396 86.853189,54.247335 L85.3718175,36.3203503 L75.6547588,54.6820355 C74.9580443,56.0314518 74.1304198,56.3358223 72.5615072,56.3358223 C70.6010691,56.3358223 69.9035515,55.6396599 69.816412,54.2906447 L68.8578774,28.7491827" fill="#E20065"/>
    <path d="M116.13407,34.5799442 C121.144793,34.5799442 124.020798,36.9294924 124.020798,40.3669949 C124.020798,44.5876802 121.231932,47.1545787 111.863833,47.1545787 C110.338691,47.1545787 108.726811,47.0675584 106.853512,46.9372284 L106.853512,47.7204112 C106.853512,51.0275838 108.857721,53.246401 112.60472,53.246401 C115.655004,53.246401 117.746352,52.0718274 119.314863,49.9833401 C119.402003,49.8526091 121.275703,50.2873096 121.275703,51.7670558 C121.275703,52.6372589 121.013883,53.1597817 120.229627,53.9429645 C118.486837,55.6396599 116.046931,56.5531726 112.51758,56.5531726 C106.156396,56.5531726 102.931833,52.8550102 102.931833,47.8507411 C102.931833,40.236264 108.726811,34.5799442 116.13407,34.5799442 L116.13407,34.5799442 Z M111.471906,44.1525787 C118.269189,44.1525787 120.099119,42.4121726 120.099119,40.4973249 C120.099119,39.105 118.748256,37.7996954 115.95939,37.7996954 C112.125653,37.7996954 108.94486,40.4540152 107.550227,43.9348274 C109.032,44.108868 110.338691,44.1525787 111.471906,44.1525787 L111.471906,44.1525787 Z" fill="#E20065"/>
    <path d="M136.918649,34.5799442 C140.22995,34.5799442 142.887906,36.102599 144.325507,38.6261878 L146.591536,28.1833503 C146.896725,26.6602944 147.462931,26.1385736 148.552375,26.1385736 L149.031442,26.1385736 C150.208026,26.1385736 151.210331,26.6169848 150.861773,28.1833503 L145.981158,51.244934 C145.458321,53.4204416 145.89442,54.2036244 147.68098,54.378066 C147.767718,54.378066 147.68098,56.4228426 145.109763,56.4228426 C142.539348,56.4228426 141.362764,54.8997868 141.537043,52.4199086 C139.750884,55.0738274 137.397716,56.5531726 134.130185,56.5531726 C129.641898,56.5531726 125.677252,53.3334213 125.677252,47.4160406 C125.677252,40.8891168 130.208506,34.5799442 136.918649,34.5799442 L136.918649,34.5799442 Z M135.262999,52.9857411 C138.835718,52.9857411 141.92897,50.2006904 142.713627,46.3280863 L143.454112,42.8472741 C142.40884,39.9314924 140.796156,38.0607563 137.267207,38.0607563 C132.517904,38.0607563 129.903317,42.6299239 129.903317,47.0675584 C129.903317,50.8098325 132.386993,52.9857411 135.262999,52.9857411 L135.262999,52.9857411 Z" fill="#E20065"/>
    <path d="M162.53927,34.5799442 C165.850571,34.5799442 168.508527,36.102599 169.946128,38.6261878 L172.212156,28.1833503 C172.516944,26.6602944 173.08315,26.1385736 174.172595,26.1385736 L174.652063,26.1385736 C175.828245,26.1385736 176.830952,26.6169848 176.481992,28.1833503 L171.601778,51.244934 C171.078941,53.4204416 171.514639,54.2036244 173.301199,54.378066 C173.388339,54.378066 173.301199,56.4228426 170.730383,56.4228426 C168.159969,56.4228426 166.983385,54.8997868 167.157664,52.4199086 C165.371103,55.0738274 163.018336,56.5531726 159.750404,56.5531726 C155.262519,56.5531726 151.297471,53.3334213 151.297471,47.4160406 C151.297471,40.8891168 155.829126,34.5799442 162.53927,34.5799442 L162.53927,34.5799442 Z M160.883619,52.9857411 C164.456339,52.9857411 167.549591,50.2006904 168.333846,46.3280863 L169.074733,42.8472741 C168.029059,39.9314924 166.416777,38.0607563 162.887828,38.0607563 C158.138524,38.0607563 155.523937,42.6299239 155.523937,47.0675584 C155.523937,50.8098325 158.007614,52.9857411 160.883619,52.9857411 L160.883619,52.9857411 Z" fill="#E20065"/>
    <path d="M180.229794,36.972802 C180.534983,35.4501472 181.101189,34.9280254 182.190634,34.9280254 L182.6697,34.9280254 C183.846284,34.9280254 184.848188,35.3631269 184.500031,36.972802 L181.493518,51.244934 C181.014451,53.4204416 181.406378,54.247335 183.367218,54.378066 C183.454357,54.378066 183.367218,56.4228426 180.665492,56.4228426 C177.484699,56.4228426 176.482394,54.4213756 177.179911,51.2016244 L180.229794,36.972802 L180.229794,36.972802 Z M181.624026,28.6184518 C181.624026,27.095797 182.626331,25.833802 184.325752,25.833802 C185.981403,25.833802 186.896568,26.5736751 186.896568,27.7919594 C186.896568,29.3583249 185.894263,30.6199188 184.194842,30.6199188 C182.539192,30.6199188 181.624026,29.836736 181.624026,28.6184518 L181.624026,28.6184518 Z" fill="#E20065"/>
    <path d="M190.512256,35.1453756 C190.555625,35.0583553 190.991322,34.9280254 191.6017,34.9280254 C193.039301,34.9280254 194.433533,35.6674975 193.997836,38.4958579 C195.610117,36.0592893 198.093794,34.5799442 201.012767,34.5799442 C205.501053,34.5799442 208.115239,37.4949239 208.115239,41.4978579 C208.115239,43.0213147 207.549033,45.3271523 206.851515,47.8078325 C206.24194,49.9396294 205.806243,51.6800355 205.806243,52.5069289 C205.806243,53.6815025 206.415817,54.1166041 207.592402,54.247335 C207.72291,54.247335 207.505262,56.4228426 204.934446,56.4228426 C202.668819,56.4228426 201.492636,55.1175381 201.492636,53.0286497 C201.492636,51.8107665 201.971703,49.9396294 202.581278,47.6333909 C203.191656,45.5449036 203.627353,43.6304569 203.627353,42.5858122 C203.627353,39.9314924 202.145982,38.3218173 199.444657,38.3218173 C196.742931,38.3218173 194.95637,39.6708325 193.257351,42.4991929 L190.773674,54.1607157 C190.468485,55.6833706 189.858508,56.2054924 188.812834,56.2054924 L188.290399,56.2054924 C187.157184,56.2054924 186.154879,55.7266802 186.460068,54.1607157 L190.512256,35.1453756" fill="#E20065"/>
    <path d="M219.531317,61.0786294 C223.234545,61.0786294 225.674451,59.0338528 226.546248,54.8997868 L227.156224,51.9406954 C225.326295,54.378066 222.929757,55.6833706 219.836104,55.6833706 C215.348219,55.6833706 211.339802,52.4632183 211.339802,46.6328579 C211.339802,40.6280558 216.176245,34.5799442 222.885987,34.5799442 C226.06678,34.5799442 228.768104,36.1463096 230.031828,38.5828782 C230.641804,35.9285584 231.600339,34.9280254 233.43067,34.9280254 C234.302065,34.9280254 234.999181,35.3194162 234.999181,35.4501472 L230.816083,55.1175381 C229.465622,61.3396904 225.892501,64.7338832 219.269497,64.7338832 C215.348219,64.7338832 212.864542,63.515599 211.383171,62.0358528 C210.337497,60.9920102 209.901799,59.9910761 209.901799,59.1208731 C209.901799,56.9449645 212.254566,56.2925127 212.341705,56.5098629 C213.34401,59.2945127 215.435359,61.0786294 219.531317,61.0786294 L219.531317,61.0786294 Z M220.969319,52.2025584 C224.49867,52.2025584 227.679463,49.6785685 228.419546,46.110335 L229.160433,42.6299239 C228.332407,39.8444721 226.328198,38.104467 223.191176,38.104467 C218.616151,38.104467 215.565867,42.3251523 215.565867,46.3713959 C215.565867,50.0266497 218.092913,52.2025584 220.969319,52.2025584 L220.969319,52.2025584 Z" fill="#E20065"/>
    <path d="M236.698602,51.7670558 C237.17807,51.2886447 237.700907,51.0708934 238.78995,51.0708934 C240.402232,51.0708934 241.274029,51.7233452 241.274029,52.8983198 C241.274029,53.9862741 241.055979,55.0309188 240.402232,55.6396599 C239.923166,56.1180711 239.35696,56.3358223 238.267515,56.3358223 C236.655233,56.3358223 235.783838,55.6833706 235.783838,54.5083959 C235.783838,53.4204416 236.045257,52.376198 236.698602,51.7670558" fill="#8E8E8E"/>
    <path d="M249.247093,35.1453756 C249.290863,35.0583553 249.726561,34.9280254 250.336537,34.9280254 C251.774138,34.9280254 253.168772,35.6674975 252.733074,38.4958579 C254.345356,36.0592893 256.828631,34.5799442 259.748005,34.5799442 C264.23589,34.5799442 266.850076,37.4949239 266.850076,41.4978579 C266.850076,43.0213147 266.28387,45.3271523 265.586754,47.8078325 C264.976777,49.9396294 264.54108,51.6800355 264.54108,52.5069289 C264.54108,53.6815025 265.151056,54.1166041 266.32764,54.247335 C266.458149,54.247335 266.240501,56.4228426 263.669684,56.4228426 C261.404057,56.4228426 260.227473,55.1175381 260.227473,53.0286497 C260.227473,51.8107665 260.70654,49.9396294 261.316516,47.6333909 C261.926894,45.5449036 262.362592,43.6304569 262.362592,42.5858122 C262.362592,39.9314924 260.880819,38.3218173 258.179494,38.3218173 C255.478169,38.3218173 253.691609,39.6708325 251.992188,42.4991929 L249.508913,54.1607157 C249.203724,55.6833706 248.593346,56.2054924 247.548073,56.2054924 L247.025236,56.2054924 C245.892422,56.2054924 244.890117,55.7266802 245.195306,54.1607157 L249.247093,35.1453756" fill="#8E8E8E"/>
    <path d="M282.972089,34.5799442 C287.982409,34.5799442 290.858415,36.9294924 290.858415,40.3669949 C290.858415,44.5876802 288.06995,47.1545787 278.701851,47.1545787 C277.176709,47.1545787 275.564829,47.0675584 273.691129,46.9372284 L273.691129,47.7204112 C273.691129,51.0275838 275.695739,53.246401 279.442738,53.246401 C282.493022,53.246401 284.583969,52.0718274 286.152881,49.9833401 C286.240021,49.8526091 288.113319,50.2873096 288.113319,51.7670558 C288.113319,52.6372589 287.851901,53.1597817 287.067645,53.9429645 C285.324855,55.6396599 282.884949,56.5531726 279.355598,56.5531726 C272.994013,56.5531726 269.769851,52.8550102 269.769851,47.8507411 C269.769851,40.236264 275.564829,34.5799442 282.972089,34.5799442 L282.972089,34.5799442 Z M278.309924,44.1525787 C285.106806,44.1525787 286.937137,42.4121726 286.937137,40.4973249 C286.937137,39.105 285.586274,37.7996954 282.797408,37.7996954 C278.963671,37.7996954 275.782879,40.4540152 274.388245,43.9348274 C275.869617,44.108868 277.176709,44.1525787 278.309924,44.1525787 L278.309924,44.1525787 Z" fill="#8E8E8E"/>
    <path d="M296.567056,38.6261878 L295.129053,38.6261878 C294.039609,38.6261878 293.430034,38.234797 293.430034,37.4949239 C293.430034,37.0165127 293.647682,35.972269 294.12715,35.5371675 C294.431937,35.2323959 294.823864,35.102066 295.65189,35.102066 L297.307943,35.102066 L297.656099,33.4049695 C298.179338,30.8376701 299.137872,29.836736 300.967802,29.836736 C301.882566,29.836736 302.623452,30.2285279 302.580083,30.3592589 L301.577778,35.102066 L306.066065,35.102066 C307.198477,35.102066 307.808454,35.4934569 307.808454,36.1896193 C307.808454,36.7117411 307.547035,37.7126751 307.111338,38.1910863 C306.806149,38.4958579 306.414222,38.6261878 305.586196,38.6261878 L300.793523,38.6261878 L298.615035,48.7209442 C297.961288,51.8977868 298.963593,53.1597817 301.011572,53.1597817 C302.187755,53.1597817 303.233429,52.5069289 303.756668,51.9406954 C303.887176,51.8540761 304.584292,52.5069289 304.584292,53.5074619 C304.584292,54.2036244 304.322874,54.7694569 303.756668,55.3348883 C303.015781,56.0747614 301.664918,56.5972843 299.878759,56.5972843 C295.564751,56.5972843 293.342894,53.8988528 294.431937,48.8083655 L296.567056,38.6261878" fill="#8E8E8E"/>
</svg>